<svg id="visual" viewBox="0 0 900 600" width="900" height="600" xmlns="http://www.w3.org/2000/svg" xmlns:xlink="http://www.w3.org/1999/xlink" version="1.1"><rect x="0" y="0" width="900" height="600" fill="#f3f4f6"></rect><defs><linearGradient id="grad1_0" x1="33.3%" y1="0%" x2="100%" y2="100%"><stop offset="20%" stop-color="#ebbedb" stop-opacity="1"></stop><stop offset="80%" stop-color="#ebbedb" stop-opacity="1"></stop></linearGradient></defs><defs><linearGradient id="grad1_1" x1="33.3%" y1="0%" x2="100%" y2="100%"><stop offset="20%" stop-color="#ebbedb" stop-opacity="1"></stop><stop offset="80%" stop-color="#e4d2ed" stop-opacity="1"></stop></linearGradient></defs><defs><linearGradient id="grad1_2" x1="33.3%" y1="0%" x2="100%" y2="100%"><stop offset="20%" stop-color="#e6e5f4" stop-opacity="1"></stop><stop offset="80%" stop-color="#e4d2ed" stop-opacity="1"></stop></linearGradient></defs><defs><linearGradient id="grad1_3" x1="33.3%" y1="0%" x2="100%" y2="100%"><stop offset="20%" stop-color="#e6e5f4" stop-opacity="1"></stop><stop offset="80%" stop-color="#f3f4f6" stop-opacity="1"></stop></linearGradient></defs><defs><linearGradient id="grad2_0" x1="0%" y1="0%" x2="66.7%" y2="100%"><stop offset="20%" stop-color="#ebbedb" stop-opacity="1"></stop><stop offset="80%" stop-color="#ebbedb" stop-opacity="1"></stop></linearGradient></defs><defs><linearGradient id="grad2_1" x1="0%" y1="0%" x2="66.7%" y2="100%"><stop offset="20%" stop-color="#e4d2ed" stop-opacity="1"></stop><stop offset="80%" stop-color="#ebbedb" stop-opacity="1"></stop></linearGradient></defs><defs><linearGradient id="grad2_2" x1="0%" y1="0%" x2="66.7%" y2="100%"><stop offset="20%" stop-color="#e4d2ed" stop-opacity="1"></stop><stop offset="80%" stop-color="#e6e5f4" stop-opacity="1"></stop></linearGradient></defs><defs><linearGradient id="grad2_3" x1="0%" y1="0%" x2="66.7%" y2="100%"><stop offset="20%" stop-color="#f3f4f6" stop-opacity="1"></stop><stop offset="80%" stop-color="#e6e5f4" stop-opacity="1"></stop></linearGradient></defs><g transform="translate(900, 0)"><path d="M0 378.6C-49.9 374.2 -99.8 369.7 -144.9 349.8C-190 329.8 -230.3 294.2 -253.9 253.9C-277.4 213.5 -284.1 168.3 -302.1 125.1C-320.1 82 -349.3 41 -378.6 0L0 0Z" fill="#ebedf6"></path><path d="M0 283.9C-37.4 280.6 -74.8 277.3 -108.7 262.3C-142.5 247.3 -172.7 220.7 -190.4 190.4C-208 160.1 -213.1 126.2 -226.6 93.9C-240.1 61.5 -262 30.8 -283.9 0L0 0Z" fill="#e4dcf2"></path><path d="M0 189.3C-24.9 187.1 -49.9 184.9 -72.4 174.9C-95 164.9 -115.2 147.1 -126.9 126.9C-138.7 106.7 -142.1 84.1 -151.1 62.6C-160 41 -174.7 20.5 -189.3 0L0 0Z" fill="#e7c8e5"></path><path d="M0 94.6C-12.5 93.5 -24.9 92.4 -36.2 87.4C-47.5 82.4 -57.6 73.6 -63.5 63.5C-69.3 53.4 -71 42.1 -75.5 31.3C-80 20.5 -87.3 10.3 -94.6 0L0 0Z" fill="#ebbedb"></path></g><g transform="translate(0, 600)"><path d="M0 -378.6C46.5 -355.1 92.9 -331.6 125.5 -303C158.1 -274.5 176.8 -240.8 217.1 -217.1C257.4 -193.3 319.2 -179.4 349.8 -144.9C380.3 -110.3 379.4 -55.2 378.6 0L0 0Z" fill="#ebedf6"></path><path d="M0 -283.9C34.9 -266.3 69.7 -248.7 94.1 -227.3C118.6 -205.9 132.6 -180.6 162.8 -162.8C193 -145 239.4 -134.6 262.3 -108.7C285.2 -82.8 284.6 -41.4 283.9 0L0 0Z" fill="#e4dcf2"></path><path d="M0 -189.3C23.2 -177.5 46.5 -165.8 62.8 -151.5C79.1 -137.2 88.4 -120.4 108.5 -108.5C128.7 -96.7 159.6 -89.7 174.9 -72.4C190.1 -55.2 189.7 -27.6 189.3 0L0 0Z" fill="#e7c8e5"></path><path d="M0 -94.6C11.6 -88.8 23.2 -82.9 31.4 -75.8C39.5 -68.6 44.2 -60.2 54.3 -54.3C64.3 -48.3 79.8 -44.9 87.4 -36.2C95.1 -27.6 94.9 -13.8 94.6 0L0 0Z" fill="#ebbedb"></path></g></svg>