<svg id="visual" viewBox="0 0 900 600" width="900" height="600" xmlns="http://www.w3.org/2000/svg" xmlns:xlink="http://www.w3.org/1999/xlink" version="1.1"><rect x="0" y="0" width="900" height="600" fill="#f3f4f6"></rect><g fill="#ebbedb"><circle r="14" cx="828" cy="298"></circle><circle r="8" cx="730" cy="6"></circle><circle r="10" cx="394" cy="229"></circle><circle r="10" cx="481" cy="400"></circle><circle r="12" cx="806" cy="456"></circle><circle r="11" cx="511" cy="510"></circle><circle r="10" cx="401" cy="412"></circle><circle r="10" cx="588" cy="392"></circle><circle r="10" cx="465" cy="21"></circle><circle r="7" cx="139" cy="114"></circle><circle r="9" cx="862" cy="434"></circle><circle r="11" cx="695" cy="370"></circle><circle r="7" cx="271" cy="249"></circle><circle r="11" cx="57" cy="225"></circle><circle r="8" cx="117" cy="261"></circle><circle r="12" cx="38" cy="526"></circle><circle r="8" cx="484" cy="350"></circle><circle r="10" cx="342" cy="109"></circle><circle r="12" cx="504" cy="285"></circle><circle r="7" cx="878" cy="107"></circle><circle r="10" cx="521" cy="396"></circle><circle r="7" cx="541" cy="567"></circle><circle r="8" cx="801" cy="80"></circle><circle r="7" cx="245" cy="163"></circle><circle r="10" cx="857" cy="83"></circle><circle r="7" cx="283" cy="549"></circle><circle r="10" cx="874" cy="563"></circle><circle r="9" cx="285" cy="26"></circle><circle r="12" cx="455" cy="224"></circle><circle r="11" cx="104" cy="138"></circle><circle r="12" cx="337" cy="365"></circle><circle r="7" cx="22" cy="492"></circle><circle r="10" cx="458" cy="470"></circle><circle r="8" cx="330" cy="395"></circle><circle r="12" cx="255" cy="438"></circle><circle r="11" cx="206" cy="62"></circle><circle r="8" cx="340" cy="156"></circle><circle r="11" cx="243" cy="275"></circle><circle r="7" cx="4" cy="37"></circle><circle r="10" cx="423" cy="522"></circle><circle r="8" cx="15" cy="588"></circle><circle r="7" cx="778" cy="537"></circle><circle r="8" cx="787" cy="148"></circle><circle r="11" cx="52" cy="197"></circle><circle r="11" cx="665" cy="276"></circle><circle r="8" cx="707" cy="529"></circle><circle r="8" cx="583" cy="313"></circle><circle r="12" cx="70" cy="86"></circle><circle r="10" cx="41" cy="444"></circle><circle r="10" cx="203" cy="476"></circle><circle r="7" cx="243" cy="373"></circle><circle r="10" cx="681" cy="136"></circle><circle r="11" cx="658" cy="34"></circle><circle r="8" cx="626" cy="143"></circle><circle r="7" cx="514" cy="115"></circle><circle r="9" cx="278" cy="328"></circle><circle r="12" cx="386" cy="493"></circle><circle r="10" cx="543" cy="359"></circle><circle r="9" cx="629" cy="393"></circle></g></svg>